<svg xmlns="http://www.w3.org/2000/svg" viewBox="0 0 100 100">
  <!-- Body -->
  <path d="M30 60 Q20 85 25 90 H75 Q80 85 70 60 Q80 70 75 90 H85 Q90 70 80 55" fill="#8B5A2B" stroke="#2F1B10" stroke-width="3" stroke-linecap="round" stroke-linejoin="round"/>
  
  <!-- Tail -->
  <path d="M75 90 Q90 90 90 75 Q90 65 80 65" fill="none" stroke="#2F1B10" stroke-width="4" stroke-linecap="round" />

  <!-- Head Shape -->
  <circle cx="50" cy="35" r="28" fill="#8B5A2B" stroke="#2F1B10" stroke-width="3" />
  
  <!-- Ears -->
  <circle cx="22" cy="35" r="8" fill="#8B5A2B" stroke="#2F1B10" stroke-width="3" />
  <circle cx="78" cy="35" r="8" fill="#8B5A2B" stroke="#2F1B10" stroke-width="3" />
  <circle cx="22" cy="35" r="4" fill="#E6C2A8" />
  <circle cx="78" cy="35" r="4" fill="#E6C2A8" />

  <!-- Face Mask -->
  <path d="M35 25 Q50 15 65 25 Q70 35 65 50 Q50 60 35 50 Q30 35 35 25" fill="#FFE4C4" stroke="#2F1B10" stroke-width="2" />
  
  <!-- Eyes -->
  <circle cx="42" cy="32" r="3" fill="#2F1B10" />
  <circle cx="58" cy="32" r="3" fill="#2F1B10" />

  <!-- Nose/Mouth -->
  <path d="M48 40 L50 42 L52 40" fill="none" stroke="#2F1B10" stroke-width="2" stroke-linecap="round" />
  <path d="M50 42 V46" fill="none" stroke="#2F1B10" stroke-width="2" />
  <path d="M45 46 H55" fill="none" stroke="#2F1B10" stroke-width="2" stroke-linecap="round" />

  <!-- Body Details (Sitting posture) -->
  <path d="M30 60 Q25 75 35 85" fill="none" stroke="#2F1B10" stroke-width="3" stroke-linecap="round" />
  <path d="M70 60 Q75 75 65 85" fill="none" stroke="#2F1B10" stroke-width="3" stroke-linecap="round" />
  <path d="M35 90 L65 90" fill="none" stroke="#2F1B10" stroke-width="3" />
</svg>